<?xml version="1.0" standalone="no"?>
<!DOCTYPE svg PUBLIC "-//W3C//DTD SVG 20010904//EN"
 "http://www.w3.org/TR/2001/REC-SVG-20010904/DTD/svg10.dtd">
<svg version="1.0" xmlns="http://www.w3.org/2000/svg"
 width="1145.000000pt" height="1145.000000pt" viewBox="0 0 1145.000000 1145.000000"
 preserveAspectRatio="xMidYMid meet">
<metadata>
Created by potrace 1.14, written by Peter Selinger 2001-2017
</metadata>
<g transform="translate(0.000000,1145.000000) scale(0.100000,-0.100000)"
fill="#000000" stroke="none">
<path d="M5676 11057 c-54 -103 -120 -228 -191 -362 -26 -49 -68 -128 -93
-175 -24 -47 -64 -121 -87 -165 -23 -44 -66 -125 -95 -180 -63 -121 -140 -265
-190 -360 -35 -66 -74 -139 -191 -362 -56 -106 -130 -247 -189 -358 -21 -38
-61 -115 -90 -170 -29 -55 -72 -136 -95 -180 -23 -44 -67 -127 -97 -185 -61
-116 -109 -206 -201 -380 -128 -241 -144 -272 -201 -382 -32 -62 -62 -117 -66
-123 -4 -5 -44 -82 -90 -170 -45 -88 -93 -178 -105 -200 -12 -22 -53 -98 -90
-170 -77 -148 -140 -268 -195 -370 -21 -38 -66 -124 -100 -190 -34 -66 -70
-133 -80 -150 -9 -16 -50 -93 -90 -170 -40 -77 -90 -171 -110 -210 -20 -38
-63 -119 -95 -180 -32 -60 -70 -132 -85 -160 -15 -27 -55 -104 -90 -170 -85
-162 -155 -296 -200 -380 -20 -38 -65 -124 -100 -190 -34 -66 -75 -142 -90
-170 -15 -27 -58 -108 -95 -180 -38 -71 -100 -191 -140 -265 -39 -74 -100
-189 -135 -255 -34 -66 -80 -151 -100 -190 -21 -38 -106 -200 -190 -360 -84
-159 -169 -321 -190 -360 -21 -38 -63 -119 -95 -180 -32 -60 -74 -141 -95
-180 -21 -38 -66 -124 -100 -190 -34 -66 -75 -142 -90 -170 -15 -27 -53 -99
-85 -160 -79 -151 -151 -287 -195 -370 -21 -38 -66 -124 -100 -190 -34 -66
-75 -142 -90 -170 -15 -27 -55 -104 -90 -170 -34 -66 -75 -142 -90 -170 -15
-27 -58 -108 -95 -180 -66 -127 -114 -219 -200 -380 -23 -44 -68 -129 -100
-190 -32 -60 -67 -125 -77 -142 l-20 -33 634 0 633 0 63 123 c34 67 81 156
103 197 22 41 73 136 111 210 39 74 83 158 98 185 15 28 53 100 85 160 70 134
145 276 195 370 21 39 63 120 95 180 32 61 75 142 95 180 21 39 63 120 95 180
32 61 75 142 95 180 21 39 63 120 95 180 32 61 75 142 95 180 21 39 61 115 90
170 47 89 97 183 210 397 19 37 57 109 84 160 27 51 66 125 86 163 20 39 63
120 95 180 32 61 72 137 90 170 18 33 65 123 105 200 40 77 83 158 95 180 26
46 87 162 170 320 32 61 77 146 100 190 23 44 68 130 100 190 57 108 112 213
185 350 21 39 61 115 90 170 29 55 69 132 90 170 20 39 62 117 93 175 30 58
73 139 95 180 21 41 65 125 97 185 31 61 76 146 100 190 23 44 68 130 100 190
32 61 74 142 95 180 39 74 99 187 195 370 32 61 66 124 75 140 10 17 52 98 95
180 43 83 90 173 105 200 15 28 53 100 85 160 75 144 140 265 180 340 18 33
68 128 111 210 43 83 95 182 115 220 21 39 53 100 72 137 l34 67 50 -97 c28
-53 85 -164 128 -247 43 -82 113 -220 157 -305 90 -174 205 -397 313 -605 40
-77 116 -225 170 -330 54 -104 119 -230 145 -280 26 -49 100 -193 165 -319
l118 -230 -41 -80 c-23 -45 -67 -128 -98 -186 -30 -58 -83 -157 -116 -220 -34
-63 -79 -149 -101 -190 -21 -41 -64 -122 -94 -180 -31 -58 -73 -136 -93 -175
-52 -97 -107 -201 -175 -330 -32 -60 -77 -146 -100 -190 -45 -84 -66 -125
-235 -445 -181 -345 -281 -534 -330 -625 -41 -77 -110 -207 -190 -360 -29 -55
-70 -131 -90 -170 -20 -38 -63 -119 -95 -180 -32 -60 -77 -146 -100 -190 -64
-121 -132 -249 -188 -355 -27 -52 -88 -167 -134 -255 -47 -88 -108 -203 -136
-255 -122 -231 -152 -289 -187 -355 -21 -38 -61 -115 -90 -170 -29 -55 -69
-131 -90 -170 -20 -38 -68 -128 -105 -200 -37 -71 -80 -152 -95 -180 -15 -27
-60 -113 -100 -190 -40 -77 -83 -158 -95 -180 -13 -22 -43 -79 -68 -127 l-46
-88 703 0 704 0 23 38 c12 20 40 71 62 112 22 41 55 101 73 133 19 32 34 60
34 62 0 2 15 30 34 62 18 32 50 90 71 128 21 39 70 129 110 200 40 72 91 166
114 209 23 43 51 92 62 109 10 18 23 41 28 52 5 11 70 130 145 265 l135 245
1570 1 c864 0 1574 -2 1579 -5 10 -6 75 -122 177 -316 32 -60 72 -137 90 -170
18 -33 49 -91 70 -130 21 -38 52 -97 70 -130 18 -33 54 -100 80 -150 26 -49
60 -112 75 -140 82 -151 204 -382 272 -512 l33 -63 677 0 676 0 -30 58 c-61
116 -132 249 -168 317 -20 39 -61 115 -90 170 -29 55 -72 136 -95 180 -98 185
-216 410 -295 560 -34 66 -77 147 -95 180 -18 33 -58 110 -90 170 -32 61 -70
133 -85 160 -15 28 -56 104 -90 170 -61 117 -105 201 -194 367 -24 46 -70 133
-101 193 -32 61 -74 142 -95 180 -20 39 -63 120 -95 180 -32 61 -75 142 -95
180 -21 39 -64 120 -95 180 -32 61 -72 137 -90 170 -18 33 -58 110 -90 170
-128 243 -159 303 -190 360 -18 33 -63 119 -100 190 -37 72 -80 153 -95 180
-15 28 -62 118 -105 200 -43 83 -81 155 -85 160 -4 6 -40 73 -80 150 -40 77
-85 163 -100 190 -15 28 -55 104 -90 170 -35 66 -80 152 -100 190 -21 39 -61
115 -90 170 -61 117 -137 261 -190 360 -21 39 -63 120 -95 180 -32 61 -78 148
-103 195 -24 47 -67 128 -95 180 -27 52 -67 127 -87 165 -21 39 -63 120 -95
180 -32 61 -75 142 -95 180 -21 39 -63 120 -95 180 -72 138 -148 282 -190 360
-18 33 -58 110 -90 170 -31 61 -74 142 -95 180 -35 66 -73 137 -200 380 -29
55 -69 132 -90 170 -20 39 -65 124 -100 190 -34 66 -70 134 -80 150 -10 17
-50 93 -90 170 -40 77 -87 167 -105 200 -18 33 -58 110 -90 170 -75 142 -138
262 -185 350 -21 39 -66 124 -100 190 -64 122 -122 233 -190 360 -20 39 -61
115 -90 170 -29 55 -72 136 -95 180 -23 44 -66 125 -95 180 -29 55 -53 101
-54 102 -1 1 -23 -39 -50 -90z m2081 -6217 c82 -158 202 -390 323 -625 114
-221 229 -443 302 -585 36 -69 109 -210 163 -315 54 -104 120 -232 146 -283
27 -51 49 -94 49 -95 0 -2 -486 -4 -1080 -4 l-1080 0 76 146 c42 80 91 173
109 206 18 33 56 105 85 160 82 156 133 252 185 350 27 50 68 128 93 175 24
47 61 117 82 155 48 90 111 210 190 360 35 66 85 161 112 210 26 50 72 136
100 193 29 56 57 101 62 99 4 -1 42 -68 83 -147z"/>
</g>
</svg>
